<svg xmlns="http://www.w3.org/2000/svg" viewBox="0 0 1600 440" width="1600" height="440" role="img">
  <defs>
    <linearGradient id="ng" x1="0" y1="0" x2="1" y2="1">
      <stop offset="0" stop-color="#0d4f9e"/>
      <stop offset="1" stop-color="#00204f"/>
    </linearGradient>
    <pattern id="nr" width="44" height="44" patternUnits="userSpaceOnUse">
      <path d="M44 0H0V44" fill="none" stroke="#ffffff" stroke-opacity="0.11" stroke-width="1"/>
    </pattern>
  </defs>
  <rect width="1600" height="440" fill="url(#ng)"/>
  <rect width="1600" height="440" fill="url(#nr)"/>
  <g stroke="#ffffff" stroke-opacity="0.22" stroke-width="3" fill="none"><rect x="74" y="120" width="268" height="260" rx="8"/><path d="M74 185h268"/><path d="M74 250h268"/><path d="M74 315h268"/><rect x="370" y="146" width="268" height="234" rx="8"/><path d="M370 204.5h268"/><path d="M370 263h268"/><path d="M370 321.5h268"/><rect x="666" y="120" width="268" height="260" rx="8"/><path d="M666 185h268"/><path d="M666 250h268"/><path d="M666 315h268"/><rect x="962" y="146" width="268" height="234" rx="8"/><path d="M962 204.5h268"/><path d="M962 263h268"/><path d="M962 321.5h268"/><rect x="1258" y="120" width="268" height="260" rx="8"/><path d="M1258 185h268"/><path d="M1258 250h268"/><path d="M1258 315h268"/></g>
  <rect x="90" y="255" width="236" height="53" rx="6" fill="#ffb159" fill-opacity="0.8"/><rect x="1274" y="182" width="236" height="53" rx="6" fill="#ffb159" fill-opacity="0.8"/>
  <text x="60" y="76" font-family="'JetBrains Mono',ui-monospace,monospace" font-size="26" font-weight="700" fill="#ffffff" fill-opacity="0.72" letter-spacing="5">BODEGA TECNICA</text>
  <text x="1540" y="76" text-anchor="end" font-family="'Hanken Grotesk',system-ui,sans-serif" font-size="24" font-weight="700" fill="#ffffff" fill-opacity="0.45" letter-spacing="2">AUTOPARTES ERG</text>
</svg>
